<svg xmlns="http://www.w3.org/2000/svg" xml:space="preserve" width="16.9332mm" height="16.9332mm" version="1.1" style="shape-rendering:geometricPrecision; text-rendering:geometricPrecision; image-rendering:optimizeQuality; fill-rule:evenodd; clip-rule:evenodd" viewBox="0 0 1693.32 1693.32" xmlns:xlink="http://www.w3.org/1999/xlink">
 <defs>
  <style type="text/css">
   
    .str0 {stroke:#2B2A29;stroke-width:35.27;stroke-linecap:round;stroke-miterlimit:22.9256}
    .str1 {stroke:#2B2A29;stroke-width:17.63;stroke-linecap:round;stroke-miterlimit:22.9256}
    .fil0 {fill:none}
   
  </style>
 </defs>
 <g id="Слой_x0020_1">
  <metadata id="CorelCorpID_0Corel-Layer"></metadata>
  <line class="fil0 str0" x1="809.79" y1="1289.91" x2="344.29" y2="1135.12"></line>
  <line class="fil0 str0" x1="1219.12" y1="1241.91" x2="1326.72" y2="1156.08"></line>
  <line class="fil0 str0" x1="809.79" y1="1289.91" x2="804.33" y2="1024.46"></line>
  <line class="fil0 str0" x1="1317.69" y1="954.05" x2="1326.72" y2="1156.08"></line>
  <line class="fil0 str0" x1="341.73" y1="993.16" x2="344.29" y2="1135.12"></line>
  <line class="fil0 str0" x1="748.6" y1="1115.34" x2="311.21" y2="974.53"></line>
  <line class="fil0 str0" x1="617.1" y1="1329.18" x2="1073.68" y2="585.26"></line>
  <line class="fil0 str0" x1="1444.9" y1="1138.04" x2="1073.68" y2="585.26"></line>
  <line class="fil0 str1" x1="1365.51" y1="1026.32" x2="1320.52" y2="1019.97"></line>
  <line class="fil0 str0" x1="503.82" y1="598.65" x2="207.01" y2="1169.18"></line>
  <line class="fil0 str0" x1="503.82" y1="598.65" x2="1073.68" y2="585.26"></line>
  <line class="fil0 str0" x1="1452.35" y1="1104.88" x2="1444.9" y2="1138.04"></line>
  <line class="fil0 str0" x1="607.04" y1="1295.91" x2="614.49" y2="1329.06"></line>
  <line class="fil0 str0" x1="198.27" y1="1136.15" x2="205.72" y2="1169.31"></line>
  <line class="fil0 str0" x1="1002.46" y1="1292.53" x2="1073.68" y2="585.26"></line>
  <line class="fil0 str0" x1="1219.12" y1="1241.91" x2="1073.68" y2="585.26"></line>
  <line class="fil0 str0" x1="809.79" y1="1289.91" x2="1002.46" y2="1292.53"></line>
  <line class="fil0 str1" x1="1035.53" y1="1118.84" x2="1196.42" y2="1139.41"></line>
 </g>
</svg>