<svg xmlns="http://www.w3.org/2000/svg" xml:space="preserve" width="16.9332mm" height="16.9332mm" version="1.1" style="shape-rendering:geometricPrecision; text-rendering:geometricPrecision; image-rendering:optimizeQuality; fill-rule:evenodd; clip-rule:evenodd" viewBox="0 0 1693.32 1693.32" xmlns:xlink="http://www.w3.org/1999/xlink">
 <defs>
  <style type="text/css">
   
    .str2 {stroke:#2B2A29;stroke-width:17.63;stroke-miterlimit:22.9256}
    .str0 {stroke:#2B2A29;stroke-width:52.91;stroke-linejoin:round;stroke-miterlimit:22.9256}
    .str1 {stroke:#2B2A29;stroke-width:17.63;stroke-linejoin:round;stroke-miterlimit:22.9256}
    .str3 {stroke:#2B2A29;stroke-width:17.63;stroke-linecap:round;stroke-miterlimit:22.9256}
    .fil0 {fill:none}
    .fil1 {fill:none;fill-rule:nonzero}
   
  </style>
 </defs>
 <g id="Слой_x0020_1">
  <metadata id="CorelCorpID_0Corel-Layer"></metadata>
  <polygon class="fil0 str0" points="829.62,339.93 1303.4,1200.27 829.62,1200.27 828.42,1200.27 354.64,1200.27 828.42,339.93 828.42,337.73 829.02,338.83 829.62,337.73 "></polygon>
  <polygon class="fil0 str1" points="829.21,475.29 974.9,724.65 829.21,724.65 828.83,724.65 683.14,724.65 828.83,475.29 828.83,474.66 829.02,474.98 829.21,474.66 "></polygon>
  <rect class="fil0 str1" x="744.45" y="829.73" width="170.55" height="319.74"></rect>
  <polygon class="fil1 str1" points="452.65,1149.47 632.73,829.46 704.79,830.14 704.82,1149.47 "></polygon>
  <polygon class="fil0 str1" points="360,1200.75 1300.68,1200.75 1395.82,1271.6 259.02,1271.6 "></polygon>
  <path class="fil0 str1" d="M336.49 1273.07l35.01 0 0 90.67 -0.05 0c-0.39,3.84 -8.05,6.91 -17.45,6.91 -9.41,0 -17.07,-3.07 -17.46,-6.91l-0.05 0 0 -90.67z"></path>
  <path class="fil0 str1" d="M1296.29 1271.75l35.01 0 0 90.67 -0.05 0c-0.39,3.84 -8.05,6.91 -17.45,6.91 -9.41,0 -17.07,-3.07 -17.46,-6.91l-0.05 0 0 -90.67z"></path>
  <polygon class="fil0 str1" points="594.06,1274.63 1045.75,1274.63 1067.06,1305.35 578.6,1305.35 "></polygon>
  <polygon class="fil0 str1" points="584.26,1336.04 1055.3,1336.04 1077.52,1368.22 568.14,1368.22 "></polygon>
  <line class="fil0 str2" x1="1032.02" y1="1273.94" x2="991.36" y2="1198.4"></line>
  <line class="fil0 str2" x1="615.21" y1="1273.94" x2="655.88" y2="1198.4"></line>
  <polygon class="fil1 str1" points="1206.8,1149.47 1026.72,829.72 954.66,830.4 954.63,1149.47 "></polygon>
  <line class="fil0 str3" x1="777.67" y1="990.47" x2="777.97" y2="1036.24"></line>
 </g>
</svg>