<svg xmlns="http://www.w3.org/2000/svg" xml:space="preserve" width="16.9332mm" height="16.9332mm" version="1.1" style="shape-rendering:geometricPrecision; text-rendering:geometricPrecision; image-rendering:optimizeQuality; fill-rule:evenodd; clip-rule:evenodd" viewBox="0 0 1693.32 1693.32" xmlns:xlink="http://www.w3.org/1999/xlink">
 <defs>
  <style type="text/css">
   
    .str0 {stroke:#2B2A29;stroke-width:17.63;stroke-linejoin:round;stroke-miterlimit:22.9256}
    .str2 {stroke:#2B2A29;stroke-width:35.27;stroke-linecap:round;stroke-miterlimit:22.9256}
    .str1 {stroke:#2B2A29;stroke-width:17.63;stroke-linecap:round;stroke-miterlimit:22.9256}
    .fil0 {fill:none}
   
  </style>
 </defs>
 <g id="Слой_x0020_1">
  <metadata id="CorelCorpID_0Corel-Layer"></metadata>
  <polygon class="fil0 str0" points="1316.15,964.48 405.46,966.32 278.25,1014.15 1381.77,1014.15 "></polygon>
  <line class="fil0 str1" x1="1102.01" y1="990.47" x2="1100.01" y2="1313.57"></line>
  <line class="fil0 str1" x1="1206.21" y1="989.12" x2="1204.21" y2="1312.56"></line>
  <line class="fil0 str1" x1="1096.65" y1="1107.86" x2="1208.94" y2="1107.39"></line>
  <line class="fil0 str1" x1="1096.65" y1="1227.41" x2="1208.94" y2="1226.94"></line>
  <path class="fil0 str1" d="M856.28 1020.42c-1.64,90.58 -4.14,273.88 30.07,363.14"></path>
  <path class="fil0 str1" d="M699.95 1220.91c3.65,36.18 -7.53,132.22 -23.77,161.76"></path>
  <path class="fil0 str1" d="M651.35 1189.16c20.96,6.54 56.86,22.71 59.06,29.23"></path>
  <path class="fil0 str1" d="M653.22 1152.75c21.62,3.84 59.27,15.36 62.27,21.54"></path>
  <path class="fil0 str1" d="M705.44 1169.56c0.45,-38.86 -0.15,-126.57 -1.7,-155.41"></path>
  <line class="fil0 str1" x1="863.79" y1="1121.76" x2="1031.89" y2="1014.15"></line>
  <line class="fil0 str1" x1="705.86" y1="1121.76" x2="537.75" y2="1014.15"></line>
  <path class="fil0 str1" d="M673.94 1387.14c15.96,26.34 65.78,39.9 105.19,39.66 49.42,-0.3 88.73,-10.97 104.89,-38.93"></path>
  <line class="fil0 str2" x1="407.47" y1="647.16" x2="405.47" y2="955.45"></line>
  <line class="fil0 str2" x1="1318.15" y1="645.79" x2="1316.15" y2="954.08"></line>
  <line class="fil0 str2" x1="357.55" y1="662.81" x2="859.68" y2="448.85"></line>
  <line class="fil0 str2" x1="1369.87" y1="662.81" x2="867.74" y2="448.85"></line>
  <line class="fil0 str2" x1="407.47" y1="658.03" x2="1318.15" y2="656.66"></line>
  <rect class="fil0 str0" x="1096.75" y="711.12" width="136.8" height="242.72"></rect>
  <line class="fil0 str1" x1="1125.55" y1="816.36" x2="1125.88" y2="845.26"></line>
  <rect class="fil0 str0" x="478.15" y="739.64" width="180.72" height="129.39"></rect>
  <rect class="fil0 str0" x="795.86" y="739.64" width="180.72" height="129.39"></rect>
  <path class="fil0 str1" d="M671.36 1146.67c9.75,-28.33 -66.07,-48.55 -64.25,11.46"></path>
  <path class="fil0 str1" d="M605.58 1160.86c16,-25.34 -53.15,-62.43 -65.16,-3.61"></path>
  <path class="fil0 str1" d="M546.45 1157.18c-28.86,-8.02 -44.48,68.88 15.31,63.45"></path>
  <path class="fil0 str1" d="M578.78 1194.86c-45.5,62.36 99.5,54.56 79.01,-3.56"></path>
  <line class="fil0 str1" x1="568.86" y1="869.03" x2="568.16" y2="739.63"></line>
  <line class="fil0 str1" x1="886.54" y1="869.31" x2="885.84" y2="739.92"></line>
  <path class="fil0 str1" d="M608.5 393.29c-82.55,-51.17 -250.19,106.3 -98.74,137.76"></path>
  <path class="fil0 str1" d="M486.7 525.35c-40.74,4.12 -26.8,93.3 47.81,61.17"></path>
  <path class="fil0 str1" d="M532.69 390.26c-52.79,-58.24 71.97,-178.1 161.25,-133.56"></path>
  <path class="fil0 str1" d="M826.33 242.74c17.76,-74.83 -172.5,-10.71 -123.26,43.45"></path>
  <path class="fil0 str1" d="M829.16 245.11c37.15,-124.52 278.34,-54.29 208.04,42.14"></path>
  <path class="fil0 str1" d="M1040.03 284.74c23.45,-29.51 106.36,23.54 38.73,65.92"></path>
  <path class="fil0 str1" d="M1185.2 470.88c46.99,-49.15 -26.89,-159.84 -107.7,-114.4"></path>
  <path class="fil0 str1" d="M1223.12 583.91c80.18,-16.05 24.5,-187.69 -38.14,-110.32"></path>
  <line class="fil0 str2" x1="405.47" y1="955.21" x2="1316.15" y2="953.84"></line>
 </g>
</svg>