<svg xmlns="http://www.w3.org/2000/svg" xml:space="preserve" width="25.4mm" height="25.4mm" version="1.1" style="shape-rendering:geometricPrecision; text-rendering:geometricPrecision; image-rendering:optimizeQuality; fill-rule:evenodd; clip-rule:evenodd" viewBox="0 0 2540 2476" xmlns:xlink="http://www.w3.org/1999/xlink">
 <defs>
  <style type="text/css">
    .str0 {stroke:#2B2A29;stroke-width:17.63;stroke-miterlimit:22.9256}
    .str2 {stroke:#2B2A29;stroke-width:17.63;stroke-linejoin:round;stroke-miterlimit:22.9256}
    .str1 {stroke:#2B2A29;stroke-width:17.63;stroke-linecap:round;stroke-miterlimit:22.9256}
    .fil1 {fill:none}
    .fil0 {fill:#2B2A29}
  </style>
 </defs>
 <g id="Слой_x0020_1">
  <metadata id="CorelCorpID_0Corel-Layer"></metadata>
  <path class="fil0 str0" d="M2211.15 998.57l-1848.42 0c-69.11,0 -125.66,56.54 -125.66,125.66l0 716.42c0,69.11 56.55,125.66 125.66,125.66l542.05 0 18.94 -42.09 717.16 0 26.1 42.09 544.17 0c69.11,0 125.66,-56.55 125.66,-125.66l0 -716.42c0,-69.12 -56.55,-125.66 -125.66,-125.66zm-31.09 76.31l-1786.24 0c-35.06,0 -63.74,28.68 -63.74,63.74l0 669.68c0,35.06 28.68,63.74 63.74,63.74l1786.24 0c35.06,0 63.74,-28.68 63.74,-63.74l0 -669.68c0,-35.06 -28.68,-63.74 -63.74,-63.74z"></path>
  <path class="fil1 str0" d="M2180.06 1074l-1786.24 0c-35.06,0 -63.74,28.68 -63.74,63.74l0 669.68c0,35.06 28.68,63.74 63.74,63.74l1786.24 0c35.06,0 63.74,-28.68 63.74,-63.74l0 -669.68c0,-35.06 -28.68,-63.74 -63.74,-63.74z"></path>
  <path class="fil1 str0" d="M1962.88 1140.9l-1351.88 0c-49.77,0 -90.53,40.75 -90.53,90.53l0 520.76 70.6 -0.1c-1.74,-4.87 -2.69,-14.59 -2.69,-20.03l0 -488.92c0,-25.59 20.93,-46.53 46.53,-46.53l1304.06 0c25.6,0 46.53,20.94 46.53,46.53l0 488.92c0,5.43 -0.95,15.16 -2.69,20.03l70.6 0.2 0 -520.86c0,-49.8 -40.76,-90.53 -90.53,-90.53z"></path>
  <path class="fil1 str0" d="M1938.97 1201.1l-1304.06 0c-25.6,0 -46.53,20.94 -46.53,46.53l0 488.91c0,5.45 0.95,10.68 2.69,15.55l1391.74 0c1.74,-4.87 2.69,-10.1 2.69,-15.55l0 -488.91c0,-25.59 -20.93,-46.53 -46.53,-46.53z"></path>
  <line class="fil1 str0" x1="520.47" y1="1752.19" x2="343.89" y2="1841.44"></line>
  <line class="fil1 str0" x1="2055.03" y1="1752.19" x2="2231.61" y2="1841.44"></line>
  <line class="fil1 str0" x1="887.9" y1="1197.94" x2="884.98" y2="1752.09"></line>
  <line class="fil1 str0" x1="1705.74" y1="1201.1" x2="1706.53" y2="1755.8"></line>
  <line class="fil1 str0" x1="1418.53" y1="1201.1" x2="1418.58" y2="1752.09"></line>
  <line class="fil1 str0" x1="1166.21" y1="1201.1" x2="1164.03" y2="1752.09"></line>
  <line class="fil1 str1" x1="1220.15" y1="1429.67" x2="1220.66" y2="1516.37"></line>
  <line class="fil1 str0" x1="2007.37" y1="1152.61" x2="2125.19" y2="1074.89"></line>
  <line class="fil1 str0" x1="571.31" y1="1150.21" x2="447.31" y2="1074.89"></line>
  <polygon class="fil1 str2" points="923.72,1924.22 1640.88,1924.22 1674.71,1972.99 899.17,1972.99 "></polygon>
  <polygon class="fil1 str2" points="908.15,2012.5 1656.04,2012.5 1691.32,2063.59 882.56,2063.59 "></polygon>
  <path class="fil1 str2" d="M403.17 1967.05l55.59 0 0 143.95 -0.07 0c-0.63,6.1 -12.79,10.97 -27.72,10.97 -14.93,0 -27.09,-4.87 -27.72,-10.97l-0.08 0 0 -143.95z"></path>
  <path class="fil1 str2" d="M2093.34 1967.05l55.58 0 0 143.95 -0.07 0c-0.63,6.1 -12.79,10.97 -27.72,10.97 -14.92,0 -27.09,-4.87 -27.72,-10.97l-0.07 0 0 -143.95z"></path>
 </g>
</svg>