<svg xmlns="http://www.w3.org/2000/svg" xml:space="preserve" width="16.9332mm" height="16.9332mm" version="1.1" style="shape-rendering:geometricPrecision; text-rendering:geometricPrecision; image-rendering:optimizeQuality; fill-rule:evenodd; clip-rule:evenodd" viewBox="0 0 1693.32 1693.32" xmlns:xlink="http://www.w3.org/1999/xlink">
 <defs>
  <style type="text/css">
   
    .str0 {stroke:#2B2A29;stroke-width:35.27;stroke-linejoin:round;stroke-miterlimit:22.9256}
    .str1 {stroke:#2B2A29;stroke-width:17.63;stroke-linejoin:round;stroke-miterlimit:22.9256}
    .str2 {stroke:#2B2A29;stroke-width:17.63;stroke-linecap:round;stroke-miterlimit:22.9256}
    .fil0 {fill:none}
   
  </style>
 </defs>
 <g id="Слой_x0020_1">
  <metadata id="CorelCorpID_0Corel-Layer"></metadata>
  <path class="fil0 str0" d="M1289.95 1018.83c11.54,-41.46 17.7,-85 17.7,-129.9 0,-280.05 -239.28,-507.07 -534.45,-507.07 -295.17,0 -534.45,227.02 -534.45,507.07 0,44.3 5.99,87.28 17.24,128.23 138.11,132.53 827.2,172.11 1033.96,1.67z"></path>
  <path class="fil0 str1" d="M1158.37 1083.85c2.03,-17.02 -0.07,-73.73 -1.11,-91.56 -6.51,-111.32 -73.74,-190.29 -150.16,-176.37 -76.41,13.91 -133.09,115.45 -126.58,226.77 1.03,17.6 8.99,71.97 12.85,87.72 86.94,-0.84 227.54,-27.89 265,-46.56z"></path>
  <path class="fil0 str2" d="M730.36 813.56c45.74,105.91 97.97,202.34 162.22,307.38"></path>
  <path class="fil0 str2" d="M264.35 733.45c202.63,78.65 329.36,76.76 537.24,81.75 191.19,-5.62 329.36,-14.64 488.33,-66.85"></path>
  <path class="fil0 str2" d="M478.89 465.89c108.44,78.34 212.15,81.38 319.14,81.75 113.57,-3.94 195.65,-14.64 290.08,-66.85"></path>
  <path class="fil0 str2" d="M730.36 813.56c-19.78,46.63 -39.57,93.27 -59.35,139.9 -23.84,56.18 -47.67,112.36 -71.5,168.54"></path>
  <line class="fil0 str2" x1="497.86" y1="797.45" x2="599.51" y2="1122"></line>
  <line class="fil0 str2" x1="497.86" y1="797.45" x2="360.06" y2="1067.09"></line>
  <line class="fil0 str2" x1="263.2" y1="736.87" x2="360.06" y2="1067.09"></line>
  <path class="fil0 str2" d="M841.49 545.64c-19.78,46.63 -21.48,50.64 -41.26,97.27 -23.84,56.18 -47.67,112.36 -71.5,168.54"></path>
  <path class="fil0 str2" d="M497.86 797.45c49.12,-91.65 88.65,-169.75 151.71,-259.45"></path>
  <line class="fil0 str2" x1="730.36" y1="813.56" x2="649.57" y2="538"></line>
  <path class="fil0 str2" d="M497.86 797.45c-12.66,-102.69 -9.55,-214.7 1.69,-317.49"></path>
  <line class="fil0 str2" x1="264.35" y1="733.45" x2="499.55" y2="479.96"></line>
  <line class="fil0 str2" x1="840.5" y1="546.09" x2="981.6" y2="806.69"></line>
  <line class="fil0 str2" x1="1018.24" y1="512.96" x2="981.6" y2="806.69"></line>
  <line class="fil0 str2" x1="1018.24" y1="512.96" x2="1196.22" y2="774.87"></line>
  <line class="fil0 str2" x1="1132.2" y1="513.29" x2="1196.22" y2="774.87"></line>
  <path class="fil0 str2" d="M1196.22 774.87c1.71,85.62 3.45,196.65 -36.54,303.43"></path>
  <line class="fil0 str2" x1="1196.52" y1="775.06" x2="1297.72" y2="986.68"></line>
  <line class="fil0 str2" x1="620.82" y1="1256.3" x2="72.93" y2="977.83"></line>
  <line class="fil0 str2" x1="243.06" y1="953.63" x2="72.93" y2="977.83"></line>
  <line class="fil0 str2" x1="1611.09" y1="1041.34" x2="620.82" y2="1256.3"></line>
  <line class="fil0 str2" x1="1611.09" y1="1041.34" x2="1304.96" y2="940.13"></line>
  <path class="fil0 str1" d="M602.04 1250.06l19.07 5.96 26.24 -4.3 0 87.53 -0.06 0c-0.51,3.84 -10.43,6.91 -22.59,6.91 -12.17,0 -22.08,-3.07 -22.6,-6.91l-0.06 0 0 -89.19z"></path>
  <path class="fil0 str1" d="M90.78 986.89l35.01 17.85 0 72.82 -0.05 0c-0.39,3.84 -8.05,6.91 -17.45,6.91 -9.41,0 -17.07,-3.07 -17.46,-6.91l-0.05 0 0 -90.67z"></path>
  <path class="fil0 str1" d="M1548.11 1054.72l43.59 -4.9 0 90.67 -0.06 0c-0.49,3.84 -10.03,6.91 -21.73,6.91 -11.71,0 -21.24,-3.07 -21.74,-6.91l-0.06 0 0 -85.77z"></path>
  <path class="fil0 str2" d="M541.55 436.06c86.21,65.79 168.66,68.35 253.72,68.66 90.29,-3.31 155.54,-12.3 230.62,-56.14"></path>
 </g>
</svg>