<svg xmlns="http://www.w3.org/2000/svg" xml:space="preserve" width="16.9332mm" height="16.9332mm" version="1.1" style="shape-rendering:geometricPrecision; text-rendering:geometricPrecision; image-rendering:optimizeQuality; fill-rule:evenodd; clip-rule:evenodd" viewBox="0 0 1693.32 1693.32" xmlns:xlink="http://www.w3.org/1999/xlink">
 <defs>
  <style type="text/css">
   
    .str1 {stroke:#2B2A29;stroke-width:35.27;stroke-linejoin:round;stroke-miterlimit:22.9256}
    .str0 {stroke:#2B2A29;stroke-width:17.63;stroke-linejoin:round;stroke-miterlimit:22.9256}
    .str2 {stroke:#2B2A29;stroke-width:35.27;stroke-linecap:round;stroke-miterlimit:22.9256}
    .str3 {stroke:#2B2A29;stroke-width:17.63;stroke-linecap:round;stroke-miterlimit:22.9256}
    .fil0 {fill:none}
   
  </style>
 </defs>
 <g id="Слой_x0020_1">
  <metadata id="CorelCorpID_0Corel-Layer"></metadata>
  <path class="fil0 str0" d="M368.21 1174.36c155.63,19.69 296.93,26.84 467.1,28.7 163.15,-1.08 315.86,-8.18 473.58,-28.7l95.14 68.64 -1136.8 0 100.98 -68.64z"></path>
  <path class="fil0 str0" d="M344.7 1244.4l35.01 0 0 90.67 -0.05 0c-0.39,3.84 -8.05,6.91 -17.45,6.91 -9.41,0 -17.07,-3.07 -17.46,-6.91l-0.05 0 0 -90.67z"></path>
  <path class="fil0 str0" d="M1304.5 1243.08l35.01 0 0 90.67 -0.05 0c-0.39,3.84 -8.05,6.91 -17.45,6.91 -9.41,0 -17.07,-3.07 -17.46,-6.91l-0.05 0 0 -90.67z"></path>
  <polygon class="fil0 str0" points="592.47,1277.37 1063.51,1277.37 1085.73,1309.55 576.35,1309.55 "></polygon>
  <path class="fil0 str1" d="M364.59 1170c114.58,30.7 314.36,33.07 471.53,33.07 158.56,0 351.36,0.24 475.67,-33.07l0 -184.03 -468.51 -512.67 -478.69 512.67c0,61.34 0,122.69 0,184.03z"></path>
  <line class="fil0 str2" x1="844.05" y1="690.84" x2="843.45" y2="477.38"></line>
  <path class="fil0 str1" d="M844.43 690.85l249.1 507.04c-84.2,6.49 -169.61,8.07 -261.73,7.67l4.42 0.02c-82.49,0.27 -171.54,-0.89 -240.51,-6.92l248.1 -507.81 0 -1.28 0.31 0.64 0.31 -0.64 0 1.28z"></path>
  <path class="fil0 str3" d="M634.63 1125.32c101.37,-19.33 139.34,-21 221.51,-23.08 75.58,2.34 122.74,2.39 193.55,17.57"></path>
  <path class="fil0 str2" d="M339.92 994.99c27.4,-14.88 109.66,-13.86 168.47,-2.84 73.74,13.81 130.98,32.44 151.34,57.34"></path>
  <path class="fil0 str2" d="M1337.4 991.11c-27.38,-14.88 -101.34,-9.98 -160.15,1.04 -73.74,13.81 -128.96,30.11 -149.31,55.01"></path>
 </g>
</svg>