<svg xmlns="http://www.w3.org/2000/svg" xml:space="preserve" width="16.9332mm" height="16.9332mm" version="1.1" style="shape-rendering:geometricPrecision; text-rendering:geometricPrecision; image-rendering:optimizeQuality; fill-rule:evenodd; clip-rule:evenodd" viewBox="0 0 1693.32 1693.32" xmlns:xlink="http://www.w3.org/1999/xlink">
 <defs>
  <style type="text/css">
   
    .str2 {stroke:#2B2A29;stroke-width:35.27;stroke-linecap:round;stroke-miterlimit:22.9256}
    .str1 {stroke:#2B2A29;stroke-width:17.63;stroke-linecap:round;stroke-miterlimit:22.9256}
    .str0 {stroke:#2B2A29;stroke-width:35.27;stroke-linecap:round;stroke-linejoin:round;stroke-miterlimit:22.9256}
    .fil0 {fill:none}
   
  </style>
 </defs>
 <g id="Слой_x0020_1">
  <metadata id="CorelCorpID_0Corel-Layer"></metadata>
  <path class="fil0 str0" d="M816.36 408.74l413.93 903.55c-133.91,46.03 -284.03,69.74 -426.04,69.74l-1.09 0c-142.02,0 -287.97,-22.29 -426.05,-69.74l415.05 -903.35 11 -1.1 0.54 1.14 0.55 -1.14 12.11 0.9z"></path>
  <line class="fil0 str1" x1="789.27" y1="403.39" x2="746.41" y2="316.58"></line>
  <line class="fil0 str1" x1="822.39" y1="403.39" x2="865.25" y2="316.58"></line>
  <line class="fil0 str1" x1="809.15" y1="403.39" x2="828.65" y2="323.8"></line>
  <line class="fil0 str1" x1="802.79" y1="403.39" x2="783.3" y2="323.8"></line>
  <line class="fil0 str2" x1="585.68" y1="1388.12" x2="803.7" y2="408.99"></line>
  <line class="fil0 str2" x1="1020.05" y1="1388.29" x2="802.82" y2="408.99"></line>
  <path class="fil0 str1" d="M657.09 1070.79c21.59,-83.09 90.66,-124.91 145.58,-123.24 68.86,2.09 123.88,36.84 147.08,125.78"></path>
  <path class="fil0 str1" d="M611.21 1276.3c28.28,-18.47 118.72,-27.76 190.63,-27.39 90.16,0.46 162.2,8.19 192.58,27.95"></path>
  <line class="fil0 str2" x1="1242.04" y1="1338.45" x2="1213.2" y2="1274.96"></line>
  <line class="fil0 str2" x1="364.92" y1="1338.45" x2="393.76" y2="1274.96"></line>
 </g>
</svg>